General
ID                               : 1
Complete name                    : G:_HDThe.Mist.2007.H264.1080p.TrueHD.RemuxThe.Mist.H264.1080p.TrueHD.ts
Format                           : MPEG-TS
File size                        : 24.9 GiB
Duration                         : 2h 5mn
Overall bit rate                 : 28.3 Mbps
Maximum Overall bit rate         : 35.5 Mbps

Video
ID                               : 4113 (0x1011)
Menu ID                          : 1 (0x1)
Format                           : AVC
Format/Info                      : Advanced Video Codec
Format profile                   : High@L4.1
Format settings, CABAC           : Yes
Format settings, ReFrames        : 3 frames
Duration                         : 2h 5mn
Width                            : 1 920 pixels
Height                           : 1 080 pixels
Display aspect ratio             : 16:9
Frame rate                       : 23.976 fps
Standard                         : NTSC
Resolution                       : 24 bits
Colorimetry                      : 4:2:0
Scan type                        : Progressive

Audio #1
ID                               : 4352 (0x1100)
Menu ID                          : 1 (0x1)
Format                           : DTS
Format/Info                      : Digital Theater Systems
Duration                         : 2h 5mn
Bit rate mode                    : Constant
Bit rate                         : 755 Kbps
Channel(s)                       : 6 channels
Channel positions                : Front: L C R, Surround: L R, LFE
Sampling rate                    : 48.0 KHz
Resolution                       : 24 bits
Video delay                      : 870ms
Stream size                      : 680 MiB (3%)
Language                         : Russian

Audio #2
ID                               : 4353 (0x1101)
Menu ID                          : 1 (0x1)
Format                           : AC-3
Format/Info                      : Audio Coding 3
Duration                         : 2h 5mn
Bit rate mode                    : Constant
Bit rate                         : 384 Kbps
Channel(s)                       : 6 channels
Channel positions                : Front: L C R, Surround: L R, LFE
Sampling rate                    : 48.0 KHz
Video delay                      : 15ms
Stream size                      : 346 MiB (1%)
Language                         : Russian

Audio #3
ID                               : 4354 (0x1102)
Menu ID                          : 1 (0x1)
Format                           : AC-3
Format/Info                      : Audio Coding 3
Duration                         : 2h 5mn
Bit rate mode                    : Constant
Bit rate                         : 384 Kbps
Channel(s)                       : 6 channels
Channel positions                : Front: L C R, Surround: L R, LFE
Sampling rate                    : 48.0 KHz
Stream size                      : 346 MiB (1%)
Language                         : Russian

Audio #4
ID                               : 4355 (0x1103)
Menu ID                          : 1 (0x1)
Format                           : DTS
Format/Info                      : Digital Theater Systems
Duration                         : 2h 5mn
Bit rate mode                    : Constant
Bit rate                         : 1 510 Kbps
Channel(s)                       : 6 channels
Channel positions                : Front: L C R, Surround: L R, LFE
Sampling rate                    : 48.0 KHz
Resolution                       : 24 bits
Stream size                      : 1.33 GiB (5%)
Language                         : English

Audio #5
ID                               : 4356 (0x1104)
Menu ID                          : 1 (0x1)
Format                           : AC-3
Format/Info                      : Audio Coding 3
Format profile                   : TrueHD
Duration                         : 2h 5mn
Bit rate mode                    : Variable
Channel(s)                       : 6 channels
Channel positions                : Front: L C R, Surround: L R, LFE
Sampling rate                    : 48.0 KHz
Language                         : English

